<svg width="32" height="32" viewBox="0 0 32 32" fill="none" xmlns="http://www.w3.org/2000/svg">
<g id="Calling">
<g id="Iconly/Light-Outline/Calling">
<g id="Calling_2">
<path id="Combined-Shape" fill-rule="evenodd" clip-rule="evenodd" d="M8.87753 2.66674C10.3669 2.68674 11.4282 3.80274 12.7709 5.21474C13.1029 5.56274 13.4615 5.94274 13.8629 6.34274C15.8082 8.2894 15.2549 9.8774 14.8082 11.1521C14.3229 12.5427 13.9029 13.7427 16.4175 16.2574C18.9322 18.7721 20.1309 18.3521 21.5202 17.8627C22.7962 17.4174 24.3802 16.8601 26.3295 18.8067C26.7255 19.2027 27.0989 19.5574 27.4455 19.8867C28.8629 21.2361 29.9829 22.3014 30.0017 23.7947C30.0162 25.0667 29.2429 26.3654 27.3335 28.2747L26.4882 27.7014L27.2042 28.3987C26.7815 28.8321 25.6575 29.9867 23.4562 30.0001H23.4162C20.0935 30.0001 15.7615 27.3547 10.5402 22.1347C5.29753 16.8934 2.64819 12.5481 2.66808 9.21874C2.68019 7.01874 3.83353 5.89207 4.26686 5.4694L4.30385 5.42901L4.39353 5.33874C6.30686 3.4254 7.62153 2.63874 8.87753 2.66674ZM8.85219 4.66674H8.84153C8.24278 4.66674 7.33348 5.26674 6.0653 6.4986L5.81064 6.74868L5.81353 6.74807C5.81353 6.74807 5.79177 6.77303 5.75468 6.81085L5.66553 6.90007C5.34286 7.2134 4.67486 7.8654 4.66813 9.2294C4.65753 11.1374 5.91219 14.6801 11.9535 20.7201C17.9655 26.7307 21.5029 28.0001 23.4162 28.0001H23.4442C24.8082 27.9921 25.4589 27.3241 25.7722 27.0027C25.8669 26.9054 25.9442 26.8321 25.9989 26.7881C27.3282 25.4507 28.0082 24.4574 28.0016 23.8187C27.9935 23.1681 27.1842 22.4001 26.0655 21.3347C25.7095 20.9974 25.3229 20.6281 24.9149 20.2201C23.8562 19.1654 23.3349 19.3454 22.1815 19.7507C20.5882 20.3094 18.4055 21.0747 15.0042 17.6707C11.6015 14.2694 12.3642 12.0867 12.9202 10.4921C13.3229 9.34007 13.5069 8.81607 12.4495 7.7574C12.0362 7.34407 11.6642 6.95207 11.3215 6.59207C10.2629 5.48007 9.49886 4.67607 8.85219 4.66674ZM20.3297 7.41007C23.1043 7.94874 25.247 10.0901 25.787 12.8661C25.8923 13.4101 25.539 13.9341 24.9977 14.0394C24.9323 14.0514 24.8683 14.0581 24.8043 14.0581C24.335 14.0581 23.9177 13.7274 23.8243 13.2501C23.4403 11.2767 21.919 9.7554 19.9483 9.37274C19.4057 9.2674 19.0523 8.7434 19.1577 8.20074C19.263 7.65807 19.7963 7.3034 20.3297 7.41007ZM20.2498 2.67434C25.6871 3.27834 29.9098 7.49567 30.5191 12.9317C30.5805 13.481 30.1858 13.9757 29.6378 14.037C29.6005 14.041 29.5618 14.0437 29.5245 14.0437C29.0218 14.0437 28.5898 13.6663 28.5325 13.1557C28.0271 8.65434 24.5311 5.161 20.0285 4.661C19.4805 4.59967 19.0845 4.10634 19.1458 3.557C19.2058 3.009 19.6951 2.605 20.2498 2.67434Z" fill="white"/>
</g>
</g>
</g>
</svg>
