<svg width="33" height="32" viewBox="0 0 33 32" fill="none" xmlns="http://www.w3.org/2000/svg">
<g id="Location">
<g id="Iconly/Light-Outline/Location">
<g id="Location_2">
<path id="Combined-Shape" fill-rule="evenodd" clip-rule="evenodd" d="M16.832 2.66699C22.8974 2.66699 27.832 7.63899 27.832 13.751C27.832 21.2643 19.224 28.667 16.832 28.667C14.44 28.667 5.83203 21.2643 5.83203 13.751C5.83203 7.63899 10.7667 2.66699 16.832 2.66699ZM16.832 4.66699C11.8694 4.66699 7.83203 8.74299 7.83203 13.751C7.83203 20.123 15.3307 26.331 16.832 26.6617C18.3334 26.3297 25.832 20.1217 25.832 13.751C25.832 8.74299 21.7947 4.66699 16.832 4.66699ZM16.8334 9.33366C19.2227 9.33366 21.1667 11.2777 21.1667 13.6683C21.1667 16.0577 19.2227 18.0003 16.8334 18.0003C14.444 18.0003 12.5 16.0577 12.5 13.6683C12.5 11.2777 14.444 9.33366 16.8334 9.33366ZM16.8334 11.3337C15.5467 11.3337 14.5 12.3803 14.5 13.6683C14.5 14.955 15.5467 16.0003 16.8334 16.0003C18.12 16.0003 19.1667 14.955 19.1667 13.6683C19.1667 12.3803 18.12 11.3337 16.8334 11.3337Z" fill="white"/>
</g>
</g>
</g>
</svg>
