<svg width="32" height="32" viewBox="0 0 32 32" fill="none" xmlns="http://www.w3.org/2000/svg">
<g id="Message">
<g id="Iconly/Light-Outline/Message">
<g id="Message_2">
<path id="Combined-Shape" fill-rule="evenodd" clip-rule="evenodd" d="M22.2127 2.66699C26.6527 2.66699 30.0006 6.28966 30.0006 11.0937V20.251C30.0006 22.7097 29.1313 24.931 27.5513 26.507C26.134 27.919 24.2953 28.667 22.234 28.667H9.09665C7.03932 28.667 5.20198 27.9203 3.78332 26.507C2.20332 24.931 1.33398 22.7097 1.33398 20.251V11.0937C1.33398 6.28966 4.68198 2.66699 9.12198 2.66699H22.2127ZM22.2127 4.66699H9.12198C5.76865 4.66699 3.33398 7.36966 3.33398 11.0937V20.251C3.33398 22.175 3.99532 23.8937 5.19532 25.0897C6.22998 26.123 7.58065 26.667 9.10065 26.667H22.2127C22.2153 26.6643 22.226 26.667 22.234 26.667C23.7553 26.667 25.1047 26.123 26.1393 25.0897C27.3407 23.8937 28.0006 22.175 28.0006 20.251V11.0937C28.0006 7.36966 25.566 4.66699 22.2127 4.66699ZM24.314 10.8387C24.662 11.2667 24.5966 11.8961 24.1686 12.2454L18.2433 17.0614C17.494 17.6561 16.598 17.9534 15.7033 17.9534C14.8113 17.9534 13.922 17.6587 13.178 17.0694L7.19798 12.2481C6.76732 11.9014 6.70065 11.2707 7.04598 10.8414C7.39398 10.4134 8.02332 10.3454 8.45265 10.6907L14.4273 15.5067C15.178 16.1014 16.2353 16.1014 16.9913 15.5014L22.906 10.6934C23.3353 10.3427 23.9646 10.4094 24.314 10.8387Z" fill="white"/>
</g>
</g>
</g>
</svg>
